<?xml version="1.0" standalone="no"?>
<!DOCTYPE svg PUBLIC "-//W3C//DTD SVG 20010904//EN"
 "http://www.w3.org/TR/2001/REC-SVG-20010904/DTD/svg10.dtd">
<svg version="1.0" xmlns="http://www.w3.org/2000/svg"
 width="260.000000pt" height="260.000000pt" viewBox="0 0 260.000000 260.000000"
 preserveAspectRatio="xMidYMid meet">
<metadata>
Created by potrace 1.11, written by Peter Selinger 2001-2013
</metadata>
<g transform="translate(0.000000,260.000000) scale(0.100000,-0.100000)"
fill="#000000" stroke="none">
<path d="M606 2554 c19 -22 50 -70 69 -109 93 -194 63 -294 -134 -450 -58 -46
-118 -99 -132 -117 -99 -127 -128 -329 -66 -462 35 -75 138 -177 235 -231 39
-22 72 -43 72 -46 0 -3 -12 -11 -27 -18 -54 -25 -121 -82 -157 -134 -40 -57
-64 -153 -52 -201 6 -24 10 -27 34 -21 39 9 142 69 202 116 58 46 70 42 70
-21 0 -143 94 -630 136 -712 41 -79 336 -158 541 -145 160 11 348 71 402 130
35 39 72 268 117 734 l5 51 63 -48 c35 -26 97 -64 137 -84 l73 -37 9 23 c13
35 2 118 -24 172 -29 63 -101 134 -172 171 -32 17 -57 32 -57 35 0 3 27 20 61
38 33 18 91 63 129 99 120 113 158 228 126 381 -30 145 -79 218 -216 322 -178
136 -220 230 -169 383 24 73 58 134 102 184 l32 36 -40 -7 c-109 -21 -238
-123 -291 -232 -33 -68 -44 -169 -24 -229 7 -20 46 -86 87 -147 41 -61 88
-139 104 -174 32 -69 46 -156 32 -193 -10 -24 -10 -24 -29 14 -28 56 -57 73
-169 97 -88 19 -131 22 -350 22 -222 0 -262 -2 -355 -23 -58 -12 -128 -33
-156 -45 -49 -22 -94 -69 -94 -98 -1 -8 -6 -6 -16 7 -12 15 -15 38 -12 91 4
84 45 176 133 299 102 142 121 206 90 311 -41 144 -183 279 -314 300 l-41 7
36 -39z m1034 -996 l65 -13 12 -60 c18 -89 33 -256 33 -359 0 -73 -2 -87 -12
-74 -57 70 -173 61 -224 -17 -36 -55 -15 -146 44 -189 37 -28 113 -27 152 2
l30 23 0 -46 c0 -69 -17 -221 -47 -408 -30 -194 -24 -185 -147 -217 -162 -41
-307 -36 -469 17 l-77 26 -15 51 c-23 81 -63 291 -80 421 -20 157 -20 151 8
133 58 -38 123 -31 173 18 60 61 55 145 -13 205 -33 28 -41 31 -90 27 -36 -3
-60 -11 -76 -26 -13 -12 -27 -22 -32 -22 -10 0 1 403 13 445 7 27 15 32 76 47
37 9 104 21 149 27 105 12 442 5 527 -11z"/>
</g>
</svg>
